Coordinates
version=1
nRows=26
nColumns=24
inDegrees=yes

Units are S.I. units (second, meters, Newtons, ...)
Angles are in degrees.

endheader
time	pelvis_tilt	pelvis_list	pelvis_rotation	pelvis_tx	pelvis_ty	pelvis_tz	hip_flexion_r	hip_adduction_r	hip_rotation_r	knee_angle_r	ankle_angle_r	subtalar_angle_r	mtp_angle_r	hip_flexion_l	hip_adduction_l	hip_rotation_l	knee_angle_l	ankle_angle_l	subtalar_angle_l	mtp_angle_l	lumbar_extension	lumbar_bending	lumbar_rotation
      4.17000000	     -2.77439287	     -4.38313633	    -11.30903227	     -0.78254674	      0.90190047	      0.27142047	    -11.59932859	      9.49603379	      9.26942507	    -20.22952096	     26.61874020	     -3.63778865	      0.00000000	     35.49305318	     -5.84548991	     -7.30715290	    -16.78754503	     13.87390185	     -8.49220325	      0.00000000	    -10.96056373	      1.93715323	      3.94939292
      4.17500000	     -2.73629686	     -4.22594621	    -11.28804290	     -0.77397356	      0.90083547	      0.27136178	    -11.83387571	      9.12228435	      8.69453108	    -20.82623729	     26.51200718	     -2.75691009	      0.00000000	     35.54963524	     -5.58187624	     -7.60781348	    -17.54740123	     13.83174709	     -8.49831946	      0.00000000	    -10.87792650	      1.72266404	      3.93743470
      4.18000000	     -2.70962244	     -4.03369762	    -11.26527432	     -0.76534596	      0.89981071	      0.27129407	    -12.00684045	      8.70824717	      8.09344496	    -21.49807194	     26.34419651	     -1.85356835	      0.00000000	     35.60478370	     -5.28648399	     -7.86458819	    -18.33737036	     13.68977882	     -8.55818700	      0.00000000	    -10.76591697	      1.46698402	      3.90935227
      4.18500000	     -2.70007386	     -3.79923658	    -11.23791435	     -0.75666437	      0.89882929	      0.27123077	    -12.10493073	      8.24904946	      7.46356742	    -22.25612660	     26.10701037	     -0.92168214	      0.00000000	     35.66634123	     -4.95461117	     -8.08222859	    -19.14515106	     13.43438977	     -8.67114981	      0.00000000	    -10.61649591	      1.16354111	      3.86456728
      4.19000000	     -2.70732245	     -3.52226998	    -11.20705382	     -0.74797262	      0.89788978	      0.27115593	    -12.11698356	      7.74167567	      6.79646588	    -23.11458251	     25.81081107	      0.04247284	      0.00000000	     35.74608869	     -4.58516542	     -8.24012932	    -19.97769435	     13.05707105	     -8.85565007	      0.00000000	    -10.43681770	      0.81282809	      3.80291994
      4.19500000	     -2.74009670	     -3.19796382	    -11.16328096	     -0.73925769	      0.89701877	      0.27107249	    -12.04499006	      7.19009179	      6.13058498	    -24.04918818	     25.41113922	      0.99132301	      0.00000000	     35.85810633	     -4.17666230	     -8.36459303	    -20.83026567	     12.55154705	     -9.07073419	      0.00000000	    -10.21298378	      0.40978307	      3.72023571
      4.20000000	     -2.79356798	     -2.82744898	    -11.11297469	     -0.73056503	      0.89620712	      0.27097841	    -11.87429189	      6.58853990	      5.44175576	    -25.09193467	     24.92582501	      1.95752283	      0.00000000	     36.00892918	     -3.73207390	     -8.45000878	    -21.71376842	     11.94366090	     -9.33468045	      0.00000000	     -9.95894467	     -0.04288975	      3.62405406
      4.20500000	     -2.86110710	     -2.41200249	    -11.06993594	     -0.72195969	      0.89543158	      0.27086424	    -11.58556581	      5.93110800	      4.72338801	    -26.28847169	     24.38831252	      2.94540920	      0.00000000	     36.19677959	     -3.24927019	     -8.44197083	    -22.63262163	     11.27533696	     -9.68108672	      0.00000000	     -9.69677876	     -0.55077949	      3.49840441
      4.21000000	     -2.95329411	     -1.94203743	    -11.00471510	     -0.71331428	      0.89474533	      0.27075360	    -11.21779951	      5.22665401	      4.04182850	    -27.54763065	     23.70380349	      3.88397126	      0.00000000	     36.43024552	     -2.72471974	     -8.46405939	    -23.57960216	     10.56227254	    -10.01831954	      0.00000000	     -9.38564398	     -1.11931608	      3.35710743
      4.21500000	     -3.05737124	     -1.44343068	    -10.93489889	     -0.70471337	      0.89411998	      0.27061246	    -10.75695984	      4.48428400	      3.36048104	    -28.92089415	     22.91201772	      4.82282549	      0.00000000	     36.69883417	     -2.17448570	     -8.45363032	    -24.56263205	      9.83528132	    -10.41773745	      0.00000000	     -9.06378799	     -1.71887305	      3.21770354
      4.22000000	     -3.16494108	     -0.91683637	    -10.86097612	     -0.69612701	      0.89355574	      0.27046528	    -10.22322327	      3.71099784	      2.72048523	    -30.38985051	     21.99333090	      5.70971182	      0.00000000	     36.98505374	     -1.60005079	     -8.43476611	    -25.57229399	      9.14041256	    -10.85069537	      0.00000000	     -8.73558810	     -2.35275554	      3.07282176
      4.22500000	     -3.27435431	     -0.35969355	    -10.78889458	     -0.68752902	      0.89304185	      0.27032303	     -9.62021240	      2.89950569	      2.11554537	    -31.94889657	     20.94910144	      6.55402172	      0.00000000	     37.27608063	     -0.99995324	     -8.41940566	    -26.59274101	      8.50462194	    -11.30842732	      0.00000000	     -8.39849556	     -3.02308135	      2.92374471
      4.23000000	     -3.37393523	      0.19803438	    -10.71879192	     -0.67896099	      0.89258203	      0.27015587	     -8.96130677	      2.07910323	      1.56119155	    -33.59725626	     19.77562466	      7.34053775	      0.00000000	     37.54911548	     -0.39102766	     -8.38558489	    -27.60493684	      7.93474044	    -11.81645915	      0.00000000	     -8.08130600	     -3.69544782	      2.79020830
      4.23500000	     -3.45538077	      0.77019564	    -10.63553639	     -0.67033952	      0.89220456	      0.27001953	     -8.27833063	      1.24618959	      1.05933671	    -35.29154930	     18.43827862	      8.02600817	      0.00000000	     37.77769394	      0.23507109	     -8.39389418	    -28.58096667	      7.47825461	    -12.27995990	      0.00000000	     -7.77467415	     -4.39361339	      2.66070029
      4.24000000	     -3.52559533	      1.34355970	    -10.58279417	     -0.66179253	      0.89181886	      0.26980740	     -7.52387330	      0.39050363	      0.61510301	    -37.09559780	     17.02654622	      8.65374323	      0.00000000	     37.96921067	      0.87742768	     -8.36249079	    -29.51085095	      7.13051108	    -12.84058599	      0.00000000	     -7.49553067	     -5.07814395	      2.53474111
      4.24500000	     -3.56363963	      1.90912459	    -10.50831422	     -0.65319915	      0.89153959	      0.26964038	     -6.77854488	     -0.44589199	      0.22897670	    -38.90653425	     15.44039183	      9.11791634	      0.00000000	     38.08537910	      1.52570501	     -8.36680252	    -30.38003785	      6.93383945	    -13.31517007	      0.00000000	     -7.25158950	     -5.77096408	      2.41017342
      4.25000000	     -3.59806708	      2.45510607	    -10.46193324	     -0.64475902	      0.89124195	      0.26935840	     -5.95330205	     -1.28710892	     -0.10910499	    -40.81518887	     13.82269186	      9.56501671	      0.00000000	     38.16483741	      2.17492907	     -8.35536254	    -31.17550998	      6.82777919	    -13.89970727	      0.00000000	     -7.04618538	     -6.41523469	      2.31798672
      4.25500000	     -3.60400226	      3.00626776	    -10.38598879	     -0.63626245	      0.89104501	      0.26910608	     -5.13986852	     -2.11441135	     -0.39363369	    -42.70874020	     12.06638872	      9.79844335	      0.00000000	     38.16043321	      2.84917963	     -8.37434047	    -31.88711332	      6.89716349	    -14.35904706	      0.00000000	     -6.86638764	     -7.07738024	      2.19237866
      4.26000000	     -3.59430235	      3.54450226	    -10.30113492	     -0.62780848	      0.89092492	      0.26883400	     -4.30870207	     -2.91569335	     -0.61635845	    -44.60486573	     10.22605306	      9.85095598	      0.00000000	     38.08831580	      3.53412646	     -8.38489309	    -32.51180106	      7.08964484	    -14.78075622	      0.00000000	     -6.71703065	     -7.72181958	      2.06236514
      4.26500000	     -3.57094374	      4.06599115	    -10.20680222	     -0.61942965	      0.89086144	      0.26853233	     -3.45395090	     -3.68782176	     -0.79395662	    -46.50664568	      8.34809458	      9.71134972	      0.00000000	     37.95466746	      4.22615982	     -8.38567372	    -33.05376256	      7.39896415	    -15.17726989	      0.00000000	     -6.60305156	     -8.34173613	      1.91499866
      4.27000000	     -3.54255594	      4.57127063	    -10.10017523	     -0.61113907	      0.89084934	      0.26818880	     -2.56808539	     -4.42885076	     -0.93362419	    -48.40597744	      6.46250501	      9.37503975	      0.00000000	     37.76998868	      4.92403150	     -8.37638461	    -33.51260243	      7.79738919	    -15.55820852	      0.00000000	     -6.51630462	     -8.93564724	      1.75235556
      4.27500000	     -3.45202010	      5.00065857	     -9.94961890	     -0.60291549	      0.89100434	      0.26781006	     -1.74909244	     -5.07970016	     -1.09166114	    -50.24975342	      4.54104617	      8.77321683	      0.00000000	     37.47687350	      5.58939278	     -8.31910284	    -33.93189992	      8.34346086	    -15.80038045	      0.00000000	     -6.53554502	     -9.44203391	      1.60071543
      4.28000000	     -3.49863463	      5.55026665	     -9.84549173	     -0.59478696	      0.89101113	      0.26736590	     -0.68752014	     -5.83119864	     -1.12496198	    -52.15495750	      2.78257020	      8.10703410	      0.00000000	     37.27998156	      6.34299880	     -8.31939077	    -34.18489073	      8.73693455	    -16.27698937	      0.00000000	     -6.37091133	    -10.04894110	      1.39148534
      4.28500000	     -3.42917235	      5.98882775	     -9.67189293	     -0.58675204	      0.89128084	      0.26694861	      0.22154822	     -6.44067549	     -1.19063676	    -53.96566050	      1.04901821	      7.12959266	      0.00000000	     36.92236590	      7.03578988	     -8.25370955	    -34.43005487	      9.32198947	    -16.48355763	      0.00000000	     -6.39785644	    -10.55433731	      1.14064074
      4.29000000	     -3.39695228	      6.44243905	     -9.49529916	     -0.57879339	      0.89158229	      0.26647377	      1.20557953	     -7.04602369	     -1.21243733	    -55.75555978	     -0.53127777	      6.02067660	      0.00000000	     36.56920503	      7.74401346	     -8.19560328	    -34.59638858	      9.86265632	    -16.72447001	      0.00000000	     -6.38528174	    -11.05634211	      0.87838426
      4.29500000	     -3.47231403	      6.90002733	     -9.33049766	     -0.57095545	      0.89182962	      0.26594787	      2.35127222	     -7.61253624	     -1.14077625	    -57.53537221	     -1.91877846	      4.80947232	      0.00000000	     36.30222885	      8.44104287	     -8.11446684	    -34.69779293	     10.31277965	    -17.03489448	      0.00000000	     -6.24856580	    -11.53194017	      0.63505678
